<svg width="430" height="430" viewBox="0 0 430 430" fill="none" xmlns="http://www.w3.org/2000/svg">
<path d="M121.23 100.29H87.5802C85.6472 100.29 84.0802 101.857 84.0802 103.79V130.44C84.0802 132.373 85.6472 133.94 87.5802 133.94H121.23C123.163 133.94 124.73 132.373 124.73 130.44V103.79C124.73 101.857 123.163 100.29 121.23 100.29Z" fill="#FFC738"/>
<g style="mix-blend-mode:multiply" opacity="0.5">
<path d="M104.4 100.29H87.5802C86.6519 100.29 85.7617 100.659 85.1053 101.315C84.4489 101.972 84.0802 102.862 84.0802 103.79V130.44C84.0802 131.368 84.4489 132.259 85.1053 132.915C85.7617 133.571 86.6519 133.94 87.5802 133.94H104.4V100.29Z" fill="#FFC738"/>
</g>
<path d="M376.07 126.94H278.54L263 87.1499C262.746 86.4924 262.298 85.9275 261.716 85.5294C261.134 85.1313 260.445 84.9188 259.74 84.9199H170.24C169.539 84.9229 168.854 85.1372 168.276 85.535C167.698 85.9328 167.253 86.4956 167 87.1499L151.47 126.94H53.9302C53.0019 126.94 52.1117 127.309 51.4553 127.965C50.7989 128.621 50.4302 129.512 50.4302 130.44V342.58C50.4302 343.508 50.7989 344.398 51.4553 345.055C52.1117 345.711 53.0019 346.08 53.9302 346.08H376.07C376.998 346.08 377.889 345.711 378.545 345.055C379.201 344.398 379.57 343.508 379.57 342.58V130.44C379.57 129.512 379.201 128.621 378.545 127.965C377.889 127.309 376.998 126.94 376.07 126.94Z" fill="#3A3347"/>
<path d="M351 164.26C351 167.504 350.038 170.675 348.236 173.372C346.433 176.069 343.871 178.171 340.874 179.412C337.877 180.653 334.579 180.978 331.397 180.344C328.215 179.71 325.293 178.147 323 175.853C320.707 173.558 319.146 170.635 318.514 167.453C317.882 164.271 318.209 160.973 319.451 157.977C320.694 154.98 322.798 152.42 325.496 150.619C328.194 148.818 331.366 147.858 334.61 147.86C336.763 147.86 338.896 148.284 340.885 149.108C342.874 149.933 344.681 151.141 346.203 152.664C347.725 154.187 348.932 155.995 349.755 157.985C350.579 159.974 351.002 162.107 351 164.26V164.26Z" stroke="#08A88A" stroke-width="7" stroke-linecap="round" stroke-linejoin="round"/>
<g style="mix-blend-mode:multiply" opacity="0.5">
<path d="M200.63 87.1499L201.63 84.9199H170.25C169.547 84.9209 168.86 85.1343 168.28 85.5322C167.7 85.9301 167.254 86.494 167 87.1499L151.47 126.94H185.12L200.63 87.1499Z" fill="#3A3347"/>
</g>
<g style="mix-blend-mode:multiply" opacity="0.5">
<path d="M84.0802 130.44V126.94H53.9302C53.0019 126.94 52.1117 127.309 51.4553 127.965C50.7989 128.621 50.4302 129.512 50.4302 130.44V342.58C50.4302 343.508 50.7989 344.398 51.4553 345.055C52.1117 345.711 53.0019 346.08 53.9302 346.08H84.0802V130.44Z" fill="#3A3347"/>
</g>
<g style="mix-blend-mode:multiply" opacity="0.5">
<path d="M199.82 164.26C183.284 164.26 167.118 169.164 153.369 178.351C139.619 187.538 128.903 200.596 122.575 215.874C116.246 231.152 114.591 247.963 117.817 264.182C121.043 280.4 129.006 295.298 140.699 306.991C152.392 318.684 167.29 326.647 183.509 329.873C199.727 333.1 216.539 331.444 231.816 325.116C247.094 318.787 260.152 308.071 269.339 294.321C278.526 280.572 283.43 264.407 283.43 247.87C283.409 225.702 274.593 204.448 258.918 188.772C243.243 173.097 221.988 164.281 199.82 164.26Z" fill="#3A3347"/>
</g>
<path opacity="0.34" d="M215 152.9C192.825 152.9 171.559 161.709 155.879 177.389C140.199 193.069 131.39 214.335 131.39 236.51C131.39 258.685 140.199 279.951 155.879 295.631C171.559 311.311 192.825 320.12 215 320.12V152.9Z" fill="#646E78"/>
<path d="M215 152.9C198.463 152.9 182.298 157.804 168.548 166.991C154.798 176.179 144.082 189.238 137.754 204.516C131.426 219.794 129.771 236.606 132.997 252.825C136.224 269.044 144.188 283.942 155.883 295.635C167.577 307.327 182.475 315.29 198.695 318.515C214.914 321.74 231.726 320.082 247.003 313.753C262.281 307.423 275.338 296.705 284.524 282.954C293.71 269.203 298.612 253.037 298.61 236.5C298.581 214.335 289.763 193.086 274.089 177.414C258.415 161.742 237.165 152.926 215 152.9Z" fill="#646E78"/>
<path d="M215 178.5C203.529 178.5 192.315 181.902 182.777 188.275C173.239 194.648 165.805 203.706 161.415 214.304C157.025 224.902 155.877 236.564 158.115 247.815C160.353 259.066 165.877 269.401 173.988 277.512C182.099 285.624 192.434 291.148 203.685 293.386C214.936 295.624 226.598 294.475 237.196 290.085C247.794 285.695 256.852 278.261 263.225 268.723C269.599 259.185 273 247.971 273 236.5C272.984 221.122 266.868 206.379 255.995 195.505C245.121 184.632 230.378 178.516 215 178.5Z" fill="#EBE6EF"/>
<g style="mix-blend-mode:multiply" opacity="0.5">
<path d="M233.72 283.5C221.263 283.505 209.17 279.299 199.405 271.564C189.64 263.829 182.777 253.02 179.93 240.893C177.082 228.766 178.419 216.032 183.722 204.76C189.024 193.487 197.982 184.339 209.14 178.8C200.028 179.702 191.259 182.748 183.55 187.689C175.841 192.631 169.412 199.327 164.788 207.231C160.165 215.134 157.478 224.02 156.948 233.161C156.418 242.303 158.06 251.439 161.739 259.824C165.419 268.209 171.031 275.604 178.117 281.403C185.203 287.202 193.562 291.241 202.508 293.19C211.455 295.138 220.736 294.941 229.592 292.614C238.448 290.286 246.627 285.895 253.46 279.8C247.162 282.232 240.471 283.486 233.72 283.5Z" fill="#EBE6EF"/>
</g>
<path d="M53.9302 231.31V130.44H376.07V342.58H53.9302V231.31Z" stroke="#121331" stroke-width="7" stroke-linecap="round" stroke-linejoin="round"/>
<path d="M295.11 236.5C295.112 252.345 290.415 267.834 281.614 281.009C272.813 294.185 260.302 304.454 245.664 310.519C231.026 316.584 214.918 318.172 199.378 315.082C183.837 311.992 169.562 304.363 158.357 293.16C147.153 281.957 139.522 267.682 136.43 252.142C133.338 236.602 134.924 220.494 140.987 205.855C147.05 191.217 157.318 178.705 170.492 169.902C183.667 161.099 199.155 156.4 215 156.4C236.245 156.4 256.62 164.839 271.643 179.86C286.666 194.881 295.108 215.255 295.11 236.5Z" stroke="#121331" stroke-width="7" stroke-linecap="round" stroke-linejoin="round"/>
<path d="M121.23 103.79H87.5802V130.44H121.23V103.79Z" stroke="#121331" stroke-width="7" stroke-linecap="round" stroke-linejoin="round"/>
<path d="M259.75 88.4199H170.25L153.85 130.42H276.15L259.75 88.4199Z" stroke="#121331" stroke-width="7" stroke-linecap="round" stroke-linejoin="round"/>
<path d="M269.49 236.5C269.492 247.278 266.298 257.814 260.312 266.776C254.326 275.738 245.816 282.724 235.86 286.849C225.903 290.975 214.946 292.056 204.376 289.954C193.805 287.853 184.095 282.664 176.473 275.044C168.852 267.424 163.661 257.714 161.558 247.144C159.455 236.574 160.533 225.617 164.657 215.66C168.781 205.703 175.765 197.192 184.726 191.204C193.687 185.216 204.223 182.02 215 182.02C229.449 182.023 243.306 187.763 253.524 197.979C263.742 208.195 269.485 222.051 269.49 236.5V236.5Z" stroke="#121331" stroke-width="7" stroke-linecap="round" stroke-linejoin="round"/>
</svg>
